<?xml version="1.0" encoding="iso-8859-1"?>
<!-- Generator: Adobe Illustrator 19.0.0, SVG Export Plug-In . SVG Version: 6.00 Build 0)  -->
<svg version="1.1" id="Capa_1" xmlns="http://www.w3.org/2000/svg" xmlns:xlink="http://www.w3.org/1999/xlink" x="0px" y="0px"
	 viewBox="0 0 512.001 512.001" style="enable-background:new 0 0 512.001 512.001;" xml:space="preserve">
<g>
	<g>
		<path d="M295.761,229.028c-6.041-6.044-14.076-9.372-22.622-9.372c-6.165,0-12.061,1.731-17.138,4.964
			c-5.077-3.233-10.975-4.964-17.139-4.964c-8.546,0-16.58,3.328-22.621,9.371c-6.044,6.042-9.373,14.077-9.373,22.623
			c0,8.546,3.328,16.581,9.372,22.624l34.277,34.274c1.515,1.515,3.5,2.272,5.485,2.272c1.986,0,3.971-0.758,5.486-2.272
			l34.273-34.275C308.234,261.798,308.234,241.501,295.761,229.028z M284.788,263.303L256,292.092l-28.79-28.79
			c-3.113-3.113-4.828-7.251-4.828-11.653c0.002-4.401,1.716-8.539,4.83-11.652c3.112-3.113,7.249-4.826,11.65-4.826
			c4.402,0,8.541,1.714,11.654,4.827c1.455,1.455,3.428,2.272,5.486,2.272c2.058,0,4.03-0.818,5.485-2.273
			c3.112-3.113,7.249-4.826,11.651-4.826c4.401,0,8.538,1.714,11.65,4.827C291.212,246.423,291.212,256.878,284.788,263.303z"/>
	</g>
</g>
<g>
	<g>
		<path d="M504.242,471.144H480.97V316.959l10.275,3.736c0.876,0.318,1.771,0.469,2.65,0.469c3.17,0,6.145-1.958,7.292-5.109
			c1.464-4.026-0.613-8.477-4.639-9.941l-113.773-41.373c-4.028-1.464-8.478,0.614-9.942,4.639
			c-1.464,4.026,0.613,8.477,4.639,9.941l87.983,31.995v159.827H356.848V239.735l7.711,7.01c0.044,0.041,0.093,0.075,0.138,0.115
			c0.097,0.084,0.196,0.166,0.296,0.245c0.098,0.077,0.197,0.15,0.297,0.222c0.098,0.069,0.196,0.136,0.296,0.2
			c0.111,0.071,0.223,0.139,0.336,0.204c0.097,0.056,0.195,0.11,0.295,0.162c0.12,0.062,0.242,0.12,0.365,0.176
			c0.1,0.046,0.201,0.09,0.303,0.131c0.126,0.051,0.255,0.096,0.384,0.141c0.104,0.035,0.207,0.071,0.312,0.102
			c0.134,0.039,0.27,0.072,0.406,0.104c0.103,0.025,0.205,0.051,0.31,0.071c0.155,0.03,0.309,0.05,0.464,0.071
			c0.09,0.012,0.178,0.027,0.269,0.036c0.247,0.024,0.497,0.038,0.745,0.038h0.001h0.001c0.812,0,1.596-0.126,2.331-0.358
			c0.036-0.012,0.071-0.027,0.105-0.039c0.21-0.069,0.418-0.144,0.62-0.231c0.085-0.036,0.166-0.081,0.249-0.12
			c0.149-0.071,0.299-0.14,0.443-0.22c0.098-0.054,0.193-0.117,0.289-0.176c0.125-0.077,0.252-0.153,0.372-0.236
			c0.096-0.066,0.188-0.139,0.281-0.21c0.117-0.089,0.234-0.179,0.346-0.275c0.086-0.074,0.169-0.151,0.252-0.228
			c0.115-0.108,0.226-0.217,0.335-0.331c0.037-0.04,0.079-0.074,0.116-0.115c0.039-0.043,0.073-0.091,0.111-0.135
			c0.092-0.107,0.182-0.215,0.269-0.327c0.073-0.094,0.144-0.188,0.212-0.285c0.077-0.108,0.148-0.219,0.22-0.33
			c0.067-0.106,0.132-0.211,0.193-0.319c0.063-0.11,0.12-0.222,0.178-0.336c0.056-0.113,0.113-0.227,0.165-0.342
			c0.051-0.114,0.096-0.23,0.141-0.347c0.046-0.119,0.092-0.238,0.131-0.359c0.039-0.118,0.073-0.237,0.106-0.357
			c0.034-0.125,0.069-0.25,0.097-0.376c0.026-0.118,0.049-0.237,0.069-0.357c0.024-0.133,0.046-0.267,0.062-0.401
			c0.014-0.115,0.024-0.23,0.033-0.346c0.011-0.143,0.018-0.287,0.022-0.43c0.001-0.058,0.008-0.114,0.008-0.171v-41.381
			c0-0.058-0.007-0.113-0.008-0.17c-0.004-0.141-0.011-0.281-0.022-0.421c-0.009-0.121-0.019-0.242-0.034-0.362
			c-0.015-0.126-0.035-0.252-0.058-0.378c-0.022-0.128-0.045-0.255-0.074-0.38c-0.026-0.118-0.058-0.234-0.09-0.351
			c-0.035-0.127-0.07-0.254-0.111-0.378c-0.038-0.116-0.082-0.229-0.126-0.343c-0.045-0.119-0.091-0.238-0.142-0.355
			c-0.052-0.117-0.109-0.231-0.167-0.345c-0.055-0.109-0.109-0.217-0.169-0.323c-0.065-0.115-0.134-0.226-0.205-0.338
			c-0.065-0.101-0.129-0.203-0.198-0.301c-0.074-0.105-0.153-0.207-0.232-0.31c-0.079-0.101-0.159-0.202-0.242-0.299
			c-0.078-0.09-0.159-0.178-0.24-0.265c-0.099-0.104-0.198-0.205-0.302-0.304c-0.04-0.038-0.076-0.081-0.118-0.119L263.758,92.758
			V62.576h12.929c4.285,0,7.758-3.473,7.758-7.758c0-4.284-3.473-7.758-7.758-7.758h-12.929V33.099c0-4.284-3.473-7.758-7.758-7.758
			c-4.284,0-7.758,3.473-7.758,7.758v13.963h-12.929c-4.284,0-7.758,3.473-7.758,7.758c0,4.284,3.473,7.758,7.758,7.758h12.929
			V92.76L137.005,193.884c-0.042,0.038-0.078,0.081-0.12,0.121c-0.103,0.097-0.202,0.197-0.299,0.299
			c-0.083,0.088-0.165,0.177-0.243,0.268c-0.084,0.097-0.163,0.197-0.242,0.299c-0.08,0.102-0.158,0.204-0.231,0.309
			c-0.07,0.099-0.134,0.201-0.199,0.303c-0.07,0.111-0.14,0.222-0.204,0.336c-0.061,0.107-0.116,0.216-0.171,0.326
			c-0.057,0.113-0.114,0.226-0.164,0.341c-0.053,0.118-0.099,0.239-0.146,0.36c-0.042,0.112-0.085,0.223-0.123,0.336
			c-0.042,0.127-0.078,0.256-0.114,0.385c-0.031,0.114-0.062,0.227-0.088,0.342c-0.029,0.128-0.052,0.258-0.075,0.388
			c-0.021,0.123-0.041,0.245-0.056,0.369c-0.015,0.123-0.026,0.246-0.036,0.371c-0.01,0.137-0.017,0.273-0.02,0.411
			c-0.002,0.059-0.009,0.116-0.009,0.175v39.308c0,0.346,0.03,0.684,0.074,1.018c-0.3,2.196,0.336,4.504,1.943,6.273
			c1.531,1.684,3.632,2.539,5.742,2.539c1.862,0,3.73-0.666,5.216-2.018l7.712-7.011v231.41H46.544V311.316l87.983-31.995
			c4.027-1.464,6.104-5.915,4.639-9.941c-1.465-4.027-5.917-6.104-9.941-4.639L15.452,306.114c-4.027,1.464-6.104,5.915-4.639,9.941
			c1.146,3.152,4.121,5.109,7.291,5.109c0.88,0,1.776-0.151,2.651-0.469l10.275-3.737v154.186H7.758
			c-4.284,0-7.758,3.473-7.758,7.758c0,4.284,3.473,7.758,7.758,7.758h496.485c4.285,0,7.758-3.473,7.758-7.758
			C512,474.617,508.527,471.144,504.242,471.144z M149.98,223.469v-20.413L256,106.673l106.019,96.382v20.413l-100.801-91.637
			c-0.005-0.005-0.01-0.008-0.015-0.012c-0.152-0.137-0.31-0.263-0.47-0.386c-0.046-0.036-0.091-0.077-0.137-0.112
			c-0.16-0.118-0.325-0.223-0.492-0.326c-0.053-0.033-0.103-0.072-0.157-0.104c-0.141-0.083-0.288-0.155-0.433-0.229
			c-0.083-0.042-0.164-0.09-0.248-0.13c-0.099-0.046-0.202-0.082-0.303-0.123c-0.133-0.056-0.266-0.115-0.402-0.163
			c-0.038-0.013-0.078-0.022-0.116-0.034c-0.437-0.145-0.884-0.255-1.335-0.32c-0.025-0.004-0.052-0.004-0.077-0.008
			c-0.219-0.029-0.439-0.053-0.66-0.063c-1.166-0.056-2.341,0.157-3.436,0.627c-0.067,0.029-0.135,0.052-0.202,0.082
			c-0.102,0.047-0.2,0.105-0.3,0.157c-0.128,0.066-0.257,0.128-0.381,0.202c-0.061,0.036-0.119,0.08-0.18,0.118
			c-0.159,0.1-0.317,0.2-0.47,0.313c-0.05,0.037-0.098,0.081-0.147,0.12c-0.156,0.121-0.311,0.242-0.459,0.377
			c-0.006,0.005-0.011,0.009-0.017,0.014L149.98,223.469z M248.242,471.144h-25.857v-74.99c0-15.866,11.051-29.189,25.857-32.702
			V471.144z M289.616,471.144h-25.858V363.452c14.807,3.512,25.858,16.836,25.858,32.702V471.144z M341.333,471.144h-36.202v-74.99
			c0-27.091-22.04-49.13-49.131-49.13c-27.09,0-49.13,22.04-49.13,49.13v74.99h-36.202V225.63L256,148.054l85.333,77.576V471.144z"
			/>
	</g>
</g>
<g>
	<g>
		<path d="M100.851,326.334c-15.686,0-28.445,12.76-28.445,28.444v62.059c0,4.284,3.473,7.758,7.758,7.758h41.373
			c4.284,0,7.758-3.473,7.758-7.758v-62.059C129.295,339.094,116.535,326.334,100.851,326.334z M113.779,409.08H87.921v-54.302
			c0-7.129,5.8-12.929,12.929-12.929c7.129,0,12.929,5.8,12.929,12.929V409.08z"/>
	</g>
</g>
<g>
	<g>
		<path d="M411.151,326.334c-15.684,0-28.444,12.76-28.444,28.444v62.059c0,4.284,3.473,7.758,7.758,7.758h41.372
			c4.285,0,7.758-3.473,7.758-7.758v-62.059C439.595,339.094,426.835,326.334,411.151,326.334z M424.079,409.08h-25.858v-54.302
			c0-7.129,5.8-12.929,12.929-12.929c7.129,0,12.929,5.8,12.929,12.929V409.08z"/>
	</g>
</g>
<g>
</g>
<g>
</g>
<g>
</g>
<g>
</g>
<g>
</g>
<g>
</g>
<g>
</g>
<g>
</g>
<g>
</g>
<g>
</g>
<g>
</g>
<g>
</g>
<g>
</g>
<g>
</g>
<g>
</g>
</svg>
