<svg height="480pt" viewBox="0 -112 480 480" width="480pt" xmlns="http://www.w3.org/2000/svg"><path d="m472 0h-32c-4.417969 0-8 3.582031-8 8v48.804688c-10.40625-9.164063-27.503906-16.804688-56-16.804688-53.023438 0-66.984375 26.347656-70.667969 40h-33.332031v-16c-.011719-8.832031-7.167969-15.988281-16-16h-32c-8.832031.011719-15.988281 7.167969-16 16h-168c-13.25.015625-23.984375 10.75-24 24v40h-8c-4.417969 0-8 3.582031-8 8v112c0 4.417969 3.582031 8 8 8h24c3.910156 0 7.25-2.824219 7.890625-6.683594l6.886719-41.316406h386.445312l6.886719 41.316406c.640625 3.859375 3.980469 6.683594 7.890625 6.683594h24c4.417969 0 8-3.582031 8-8v-240c0-4.417969-3.582031-8-8-8zm-96 56c37.492188 0 49.882812 14.511719 53.976562 24h-107.945312c4.109375-9.519531 16.515625-24 53.96875-24zm56 40v32h-160v-32zm-208-32h32v64h-32zm-192 24c.003906-4.417969 3.582031-7.996094 8-8h168v48h-176zm-16 56h416v48h-416zm9.226562 96h-9.226562v-32h14.554688zm438.773438 0h-9.226562l-6.773438-40.660156v-183.339844h16zm0 0"/></svg>